<svg width="74" height="72" viewBox="0 0 74 72" fill="none" xmlns="http://www.w3.org/2000/svg">
<path d="M6.84375 36.5C6.84375 20.1178 20.1178 6.84375 36.5 6.84375C45.4967 6.84375 53.5523 10.8502 58.9988 17.1807C60.225 18.6207 62.3922 18.7775 63.818 17.5514C65.2438 16.3252 65.4148 14.158 64.1887 12.7322C57.5018 4.9332 47.5783 0 36.5 0C16.3395 0 0 16.3395 0 36.5V42.2031C0 44.0994 1.52559 45.625 3.42188 45.625C5.31816 45.625 6.84375 44.0994 6.84375 42.2031V36.5ZM72.2158 28.9576C71.8309 27.1041 70.0059 25.9207 68.1666 26.3199C66.3273 26.7191 65.1297 28.5299 65.5289 30.3691C65.9424 32.351 66.1705 34.4041 66.1705 36.5143V42.2174C66.1705 44.1137 67.6961 45.6393 69.5924 45.6393C71.4887 45.6393 73.0143 44.1137 73.0143 42.2174V36.5C73.0143 33.9193 72.7434 31.3957 72.2301 28.9576H72.2158ZM36.5 11.4062C33.791 11.4062 31.1676 11.834 28.7295 12.6324C26.5623 13.3453 26.0633 16.0115 27.5461 17.751C28.5584 18.9344 30.2266 19.2908 31.7379 18.8773C33.2492 18.4639 34.8461 18.25 36.5 18.25C46.5803 18.25 54.75 26.4197 54.75 36.5V40.0502C54.75 43.6432 54.5361 47.2219 54.1227 50.7863C53.8803 52.868 55.4629 54.75 57.573 54.75C59.2555 54.75 60.6955 53.5238 60.8951 51.8557C61.3656 47.949 61.608 44.0139 61.608 40.0645V36.5C61.608 22.6414 50.3729 11.4062 36.5143 11.4062H36.5ZM21.4865 21.2014C20.1891 19.69 17.8793 19.576 16.6531 21.1443C13.3596 25.3789 11.4062 30.7113 11.4062 36.5V40.0502C11.4062 43.5006 11.0355 46.951 10.2941 50.3016C9.80937 52.5258 11.4205 54.75 13.7018 54.75C15.1988 54.75 16.5391 53.752 16.867 52.2834C17.7795 48.277 18.25 44.185 18.25 40.0502V36.5C18.25 32.6219 19.4619 29.0289 21.515 26.0775C22.5416 24.5947 22.6557 22.5701 21.4865 21.2014ZM36.5 22.8125C28.9434 22.8125 22.8125 28.9434 22.8125 36.5V40.0502C22.8125 45.1688 22.1566 50.2445 20.8449 55.1777C20.3031 57.2166 21.8002 59.3125 23.9104 59.3125C25.2648 59.3125 26.4625 58.4285 26.8189 57.1168C28.316 51.5563 29.0859 45.8246 29.0859 40.0502V36.5C29.0859 32.408 32.408 29.0859 36.5 29.0859C40.592 29.0859 43.9141 32.408 43.9141 36.5V40.0502C43.9141 45.2258 43.415 50.3728 42.4313 55.4344C42.0463 57.4162 43.5291 59.3125 45.5395 59.3125C46.9937 59.3125 48.2484 58.3145 48.5336 56.8887C49.6314 51.3566 50.1875 45.7248 50.1875 40.0502V36.5C50.1875 28.9434 44.0566 22.8125 36.5 22.8125ZM39.9219 36.5C39.9219 34.6037 38.3963 33.0781 36.5 33.0781C34.6037 33.0781 33.0781 34.6037 33.0781 36.5V40.0502C33.0781 48.5906 31.5098 57.0598 28.4443 65.0299L27.6031 67.2113C26.9188 68.9793 27.8027 70.9611 29.5707 71.6312C31.3387 72.3014 33.3205 71.4316 33.9906 69.6637L34.8318 67.4822C38.1967 58.7279 39.9219 49.4318 39.9219 40.0502V36.5Z" fill="#09A88A"/>
</svg>
