<svg width="376" height="72" viewBox="0 0 376 72" fill="none" xmlns="http://www.w3.org/2000/svg">
<path d="M6.84375 36.5C6.84375 20.1178 20.1178 6.84375 36.5 6.84375C45.4967 6.84375 53.5523 10.8502 58.9988 17.1807C60.225 18.6207 62.3922 18.7775 63.818 17.5514C65.2438 16.3252 65.4148 14.158 64.1887 12.7322C57.5018 4.9332 47.5783 0 36.5 0C16.3395 0 0 16.3395 0 36.5V42.2031C0 44.0994 1.52559 45.625 3.42188 45.625C5.31816 45.625 6.84375 44.0994 6.84375 42.2031V36.5ZM72.2158 28.9576C71.8309 27.1041 70.0059 25.9207 68.1666 26.3199C66.3273 26.7191 65.1297 28.5299 65.5289 30.3691C65.9424 32.351 66.1705 34.4041 66.1705 36.5143V42.2174C66.1705 44.1137 67.6961 45.6393 69.5924 45.6393C71.4887 45.6393 73.0143 44.1137 73.0143 42.2174V36.5C73.0143 33.9193 72.7434 31.3957 72.2301 28.9576H72.2158ZM36.5 11.4062C33.791 11.4062 31.1676 11.834 28.7295 12.6324C26.5623 13.3453 26.0633 16.0115 27.5461 17.751C28.5584 18.9344 30.2266 19.2908 31.7379 18.8773C33.2492 18.4639 34.8461 18.25 36.5 18.25C46.5803 18.25 54.75 26.4197 54.75 36.5V40.0502C54.75 43.6432 54.5361 47.2219 54.1227 50.7863C53.8803 52.868 55.4629 54.75 57.573 54.75C59.2555 54.75 60.6955 53.5238 60.8951 51.8557C61.3656 47.949 61.608 44.0139 61.608 40.0645V36.5C61.608 22.6414 50.3729 11.4062 36.5143 11.4062H36.5ZM21.4865 21.2014C20.1891 19.69 17.8793 19.576 16.6531 21.1443C13.3596 25.3789 11.4062 30.7113 11.4062 36.5V40.0502C11.4062 43.5006 11.0355 46.951 10.2941 50.3016C9.80937 52.5258 11.4205 54.75 13.7018 54.75C15.1988 54.75 16.5391 53.752 16.867 52.2834C17.7795 48.277 18.25 44.185 18.25 40.0502V36.5C18.25 32.6219 19.4619 29.0289 21.515 26.0775C22.5416 24.5947 22.6557 22.5701 21.4865 21.2014ZM36.5 22.8125C28.9434 22.8125 22.8125 28.9434 22.8125 36.5V40.0502C22.8125 45.1687 22.1566 50.2445 20.8449 55.1777C20.3031 57.2166 21.8002 59.3125 23.9104 59.3125C25.2648 59.3125 26.4625 58.4285 26.8189 57.1168C28.316 51.5563 29.0859 45.8246 29.0859 40.0502V36.5C29.0859 32.408 32.408 29.0859 36.5 29.0859C40.592 29.0859 43.9141 32.408 43.9141 36.5V40.0502C43.9141 45.2258 43.415 50.3728 42.4313 55.4344C42.0463 57.4162 43.5291 59.3125 45.5395 59.3125C46.9937 59.3125 48.2484 58.3145 48.5336 56.8887C49.6314 51.3566 50.1875 45.7248 50.1875 40.0502V36.5C50.1875 28.9434 44.0566 22.8125 36.5 22.8125ZM39.9219 36.5C39.9219 34.6037 38.3963 33.0781 36.5 33.0781C34.6037 33.0781 33.0781 34.6037 33.0781 36.5V40.0502C33.0781 48.5906 31.5098 57.0598 28.4443 65.0299L27.6031 67.2113C26.9188 68.9793 27.8027 70.9611 29.5707 71.6312C31.3387 72.3014 33.3205 71.4316 33.9906 69.6637L34.8318 67.4822C38.1967 58.7279 39.9219 49.4318 39.9219 40.0502V36.5Z" fill="#09A88A"/>
<path d="M102.761 47V23.7273H112.375C114.117 23.7273 115.621 24.0682 116.886 24.75C118.159 25.4242 119.14 26.3674 119.83 27.5795C120.519 28.7841 120.864 30.1856 120.864 31.7841C120.864 33.3902 120.511 34.7955 119.807 36C119.11 37.197 118.114 38.125 116.818 38.7841C115.523 39.4432 113.985 39.7727 112.205 39.7727H106.273V35.3409H111.159C112.008 35.3409 112.716 35.1932 113.284 34.8977C113.86 34.6023 114.295 34.1894 114.591 33.6591C114.886 33.1212 115.034 32.4962 115.034 31.7841C115.034 31.0644 114.886 30.4432 114.591 29.9205C114.295 29.3902 113.86 28.9811 113.284 28.6932C112.708 28.4053 112 28.2614 111.159 28.2614H108.386V47H102.761ZM125.858 47H119.812L127.665 23.7273H135.153L143.006 47H136.96L131.494 29.5909H131.312L125.858 47ZM125.051 37.8409H137.688V42.1136H125.051V37.8409ZM157.372 30.7045C157.296 29.8712 156.959 29.2235 156.361 28.7614C155.77 28.2917 154.925 28.0568 153.827 28.0568C153.099 28.0568 152.493 28.1515 152.009 28.3409C151.524 28.5303 151.16 28.7917 150.918 29.125C150.675 29.4508 150.55 29.8258 150.543 30.25C150.527 30.5985 150.596 30.9053 150.747 31.1705C150.906 31.4356 151.134 31.6705 151.429 31.875C151.732 32.072 152.096 32.2462 152.52 32.3977C152.944 32.5492 153.421 32.6818 153.952 32.7955L155.952 33.25C157.103 33.5 158.118 33.8333 158.997 34.25C159.884 34.6667 160.626 35.1629 161.224 35.7386C161.83 36.3144 162.289 36.9773 162.599 37.7273C162.91 38.4773 163.069 39.3182 163.077 40.25C163.069 41.7197 162.698 42.9811 161.963 44.0341C161.228 45.0871 160.171 45.8939 158.793 46.4545C157.421 47.0152 155.766 47.2955 153.827 47.2955C151.88 47.2955 150.183 47.0038 148.736 46.4205C147.289 45.8371 146.164 44.9508 145.361 43.7614C144.558 42.572 144.145 41.0682 144.122 39.25H149.509C149.554 40 149.755 40.625 150.111 41.125C150.467 41.625 150.955 42.0038 151.577 42.2614C152.205 42.5189 152.933 42.6477 153.759 42.6477C154.516 42.6477 155.16 42.5455 155.69 42.3409C156.228 42.1364 156.641 41.8523 156.929 41.4886C157.217 41.125 157.365 40.7083 157.372 40.2386C157.365 39.7992 157.228 39.4242 156.963 39.1136C156.698 38.7955 156.289 38.5227 155.736 38.2955C155.19 38.0606 154.493 37.8447 153.645 37.6477L151.213 37.0795C149.198 36.6174 147.611 35.8712 146.452 34.8409C145.293 33.803 144.717 32.4015 144.724 30.6364C144.717 29.197 145.103 27.9356 145.884 26.8523C146.664 25.7689 147.743 24.9242 149.122 24.3182C150.501 23.7121 152.073 23.4091 153.838 23.4091C155.641 23.4091 157.205 23.7159 158.531 24.3295C159.865 24.9356 160.899 25.7879 161.634 26.8864C162.368 27.9848 162.743 29.2576 162.759 30.7045H157.372ZM178.497 30.7045C178.421 29.8712 178.084 29.2235 177.486 28.7614C176.895 28.2917 176.05 28.0568 174.952 28.0568C174.224 28.0568 173.618 28.1515 173.134 28.3409C172.649 28.5303 172.285 28.7917 172.043 29.125C171.8 29.4508 171.675 29.8258 171.668 30.25C171.652 30.5985 171.721 30.9053 171.872 31.1705C172.031 31.4356 172.259 31.6705 172.554 31.875C172.857 32.072 173.221 32.2462 173.645 32.3977C174.069 32.5492 174.546 32.6818 175.077 32.7955L177.077 33.25C178.228 33.5 179.243 33.8333 180.122 34.25C181.009 34.6667 181.751 35.1629 182.349 35.7386C182.955 36.3144 183.414 36.9773 183.724 37.7273C184.035 38.4773 184.194 39.3182 184.202 40.25C184.194 41.7197 183.823 42.9811 183.088 44.0341C182.353 45.0871 181.296 45.8939 179.918 46.4545C178.546 47.0152 176.891 47.2955 174.952 47.2955C173.005 47.2955 171.308 47.0038 169.861 46.4205C168.414 45.8371 167.289 44.9508 166.486 43.7614C165.683 42.572 165.27 41.0682 165.247 39.25H170.634C170.679 40 170.88 40.625 171.236 41.125C171.592 41.625 172.08 42.0038 172.702 42.2614C173.33 42.5189 174.058 42.6477 174.884 42.6477C175.641 42.6477 176.285 42.5455 176.815 42.3409C177.353 42.1364 177.766 41.8523 178.054 41.4886C178.342 41.125 178.49 40.7083 178.497 40.2386C178.49 39.7992 178.353 39.4242 178.088 39.1136C177.823 38.7955 177.414 38.5227 176.861 38.2955C176.315 38.0606 175.618 37.8447 174.77 37.6477L172.338 37.0795C170.323 36.6174 168.736 35.8712 167.577 34.8409C166.418 33.803 165.842 32.4015 165.849 30.6364C165.842 29.197 166.228 27.9356 167.009 26.8523C167.789 25.7689 168.868 24.9242 170.247 24.3182C171.626 23.7121 173.198 23.4091 174.963 23.4091C176.766 23.4091 178.33 23.7159 179.656 24.3295C180.99 24.9356 182.024 25.7879 182.759 26.8864C183.493 27.9848 183.868 29.2576 183.884 30.7045H178.497ZM209.009 35.3636C209.009 37.9242 208.516 40.0947 207.531 41.875C206.546 43.6553 205.213 45.0076 203.531 45.9318C201.857 46.8561 199.978 47.3182 197.895 47.3182C195.804 47.3182 193.921 46.8523 192.247 45.9205C190.573 44.9886 189.243 43.6364 188.259 41.8636C187.281 40.0833 186.793 37.9167 186.793 35.3636C186.793 32.803 187.281 30.6326 188.259 28.8523C189.243 27.072 190.573 25.7197 192.247 24.7955C193.921 23.8712 195.804 23.4091 197.895 23.4091C199.978 23.4091 201.857 23.8712 203.531 24.7955C205.213 25.7197 206.546 27.072 207.531 28.8523C208.516 30.6326 209.009 32.803 209.009 35.3636ZM203.259 35.3636C203.259 33.8485 203.043 32.5682 202.611 31.5227C202.187 30.4773 201.573 29.6856 200.77 29.1477C199.974 28.6098 199.016 28.3409 197.895 28.3409C196.781 28.3409 195.823 28.6098 195.02 29.1477C194.217 29.6856 193.599 30.4773 193.168 31.5227C192.743 32.5682 192.531 33.8485 192.531 35.3636C192.531 36.8788 192.743 38.1591 193.168 39.2045C193.599 40.25 194.217 41.0417 195.02 41.5795C195.823 42.1174 196.781 42.3864 197.895 42.3864C199.016 42.3864 199.974 42.1174 200.77 41.5795C201.573 41.0417 202.187 40.25 202.611 39.2045C203.043 38.1591 203.259 36.8788 203.259 35.3636ZM212.293 47V23.7273H221.906C223.649 23.7273 225.152 24.0417 226.418 24.6705C227.69 25.2917 228.671 26.1856 229.361 27.3523C230.05 28.5114 230.395 29.8864 230.395 31.4773C230.395 33.0909 230.043 34.4621 229.338 35.5909C228.634 36.7121 227.634 37.5682 226.338 38.1591C225.043 38.7424 223.509 39.0341 221.736 39.0341H215.656V34.6023H220.69C221.539 34.6023 222.247 34.4924 222.815 34.2727C223.391 34.0455 223.827 33.7045 224.122 33.25C224.418 32.7879 224.565 32.197 224.565 31.4773C224.565 30.7576 224.418 30.1629 224.122 29.6932C223.827 29.2159 223.391 28.8598 222.815 28.625C222.24 28.3826 221.531 28.2614 220.69 28.2614H217.918V47H212.293ZM225.395 36.3636L231.19 47H225.054L219.372 36.3636H225.395ZM248.753 31.3295C248.624 30.8523 248.435 30.4318 248.185 30.0682C247.935 29.697 247.628 29.3826 247.264 29.125C246.901 28.8674 246.484 28.6742 246.014 28.5455C245.545 28.4091 245.029 28.3409 244.469 28.3409C243.34 28.3409 242.363 28.6136 241.537 29.1591C240.719 29.7045 240.086 30.5 239.639 31.5455C239.192 32.5833 238.969 33.8447 238.969 35.3295C238.969 36.822 239.185 38.0947 239.616 39.1477C240.048 40.2008 240.673 41.0038 241.491 41.5568C242.31 42.1098 243.302 42.3864 244.469 42.3864C245.499 42.3864 246.37 42.2197 247.082 41.8864C247.802 41.5455 248.348 41.0644 248.719 40.4432C249.09 39.822 249.276 39.0909 249.276 38.25L250.321 38.375H244.662V34.2727H254.696V37.3523C254.696 39.4356 254.253 41.2197 253.366 42.7045C252.488 44.1894 251.276 45.3295 249.73 46.125C248.192 46.9205 246.423 47.3182 244.423 47.3182C242.204 47.3182 240.253 46.8371 238.571 45.875C236.889 44.9129 235.579 43.5417 234.639 41.7614C233.7 39.9735 233.23 37.8523 233.23 35.3977C233.23 33.4886 233.514 31.7955 234.082 30.3182C234.651 28.8333 235.442 27.5758 236.457 26.5455C237.48 25.5152 238.662 24.7348 240.003 24.2045C241.351 23.6742 242.802 23.4091 244.355 23.4091C245.704 23.4091 246.957 23.6023 248.116 23.9886C249.283 24.375 250.313 24.9205 251.207 25.625C252.109 26.3295 252.84 27.1667 253.401 28.1364C253.961 29.1061 254.31 30.1705 254.446 31.3295H248.753ZM262.327 47H256.281L264.134 23.7273H271.622L279.474 47H273.429L267.963 29.5909H267.781L262.327 47ZM261.52 37.8409H274.156V42.1136H261.52V37.8409ZM301.787 23.7273V47H297.014L287.753 33.5682H287.605V47H281.98V23.7273H286.821L295.98 37.1364H296.173V23.7273H301.787ZM310.949 23.7273V47H305.324V23.7273H310.949ZM314.401 47V43.7955L325.707 28.2955H314.412V23.7273H332.821V26.9318L321.514 42.4318H332.81V47H314.401ZM336.261 47V23.7273H352.489V28.2955H341.886V33.0682H351.659V37.6477H341.886V42.4318H352.489V47H336.261ZM356.011 47V23.7273H365.625C367.367 23.7273 368.871 24.0417 370.136 24.6705C371.409 25.2917 372.39 26.1856 373.08 27.3523C373.769 28.5114 374.114 29.8864 374.114 31.4773C374.114 33.0909 373.761 34.4621 373.057 35.5909C372.352 36.7121 371.352 37.5682 370.057 38.1591C368.761 38.7424 367.227 39.0341 365.455 39.0341H359.375V34.6023H364.409C365.258 34.6023 365.966 34.4924 366.534 34.2727C367.11 34.0455 367.545 33.7045 367.841 33.25C368.136 32.7879 368.284 32.197 368.284 31.4773C368.284 30.7576 368.136 30.1629 367.841 29.6932C367.545 29.2159 367.11 28.8598 366.534 28.625C365.958 28.3826 365.25 28.2614 364.409 28.2614H361.636V47H356.011ZM369.114 36.3636L374.909 47H368.773L363.091 36.3636H369.114Z" fill="black"/>
</svg>
